<mxfile host="app.diagrams.net" agent="Mozilla/5.0 (Windows NT 10.0; Win64; x64) AppleWebKit/537.36 (KHTML, like Gecko) Chrome/136.0.0.0 Safari/537.36" version="27.0.4">
  <diagram name="Страница — 1" id="I1C123mpmmwiP_-HXLVm">
    <mxGraphModel dx="563" dy="313" grid="1" gridSize="10" guides="1" tooltips="1" connect="1" arrows="1" fold="1" page="1" pageScale="1" pageWidth="827" pageHeight="1169" math="0" shadow="0">
      <root>
        <mxCell id="0" />
        <mxCell id="1" parent="0" />
        <mxCell id="7oyN3cYrIqbN6IqhUOc_-6" style="edgeStyle=none;curved=1;rounded=0;orthogonalLoop=1;jettySize=auto;html=1;exitX=1;exitY=0.5;exitDx=0;exitDy=0;entryX=0;entryY=0.5;entryDx=0;entryDy=0;fontSize=12;startSize=8;endSize=8;startArrow=classic;startFill=1;" edge="1" parent="1" source="7oyN3cYrIqbN6IqhUOc_-1" target="7oyN3cYrIqbN6IqhUOc_-3">
          <mxGeometry relative="1" as="geometry" />
        </mxCell>
        <mxCell id="7oyN3cYrIqbN6IqhUOc_-1" value="" style="image;aspect=fixed;perimeter=ellipsePerimeter;html=1;align=center;shadow=0;dashed=0;spacingTop=3;image=img/lib/active_directory/laptop_client.svg;" vertex="1" parent="1">
          <mxGeometry x="40" y="290" width="45" height="50" as="geometry" />
        </mxCell>
        <mxCell id="7oyN3cYrIqbN6IqhUOc_-2" value="" style="image;aspect=fixed;perimeter=ellipsePerimeter;html=1;align=center;shadow=0;dashed=0;spacingTop=3;image=img/lib/active_directory/laptop_client.svg;" vertex="1" parent="1">
          <mxGeometry x="187.5" y="410" width="45" height="50" as="geometry" />
        </mxCell>
        <mxCell id="7oyN3cYrIqbN6IqhUOc_-7" style="edgeStyle=none;curved=1;rounded=0;orthogonalLoop=1;jettySize=auto;html=1;exitX=1;exitY=0.5;exitDx=0;exitDy=0;entryX=0;entryY=0.5;entryDx=0;entryDy=0;fontSize=12;startSize=8;endSize=8;startArrow=classic;startFill=1;" edge="1" parent="1" source="7oyN3cYrIqbN6IqhUOc_-3" target="7oyN3cYrIqbN6IqhUOc_-4">
          <mxGeometry relative="1" as="geometry" />
        </mxCell>
        <mxCell id="7oyN3cYrIqbN6IqhUOc_-8" style="edgeStyle=none;curved=1;rounded=0;orthogonalLoop=1;jettySize=auto;html=1;exitX=0.5;exitY=1;exitDx=0;exitDy=0;entryX=0.5;entryY=0;entryDx=0;entryDy=0;fontSize=12;startSize=8;endSize=8;startArrow=classic;startFill=1;" edge="1" parent="1" source="7oyN3cYrIqbN6IqhUOc_-3" target="7oyN3cYrIqbN6IqhUOc_-2">
          <mxGeometry relative="1" as="geometry" />
        </mxCell>
        <mxCell id="7oyN3cYrIqbN6IqhUOc_-3" value="" style="image;aspect=fixed;perimeter=ellipsePerimeter;html=1;align=center;shadow=0;dashed=0;spacingTop=3;image=img/lib/active_directory/internet_cloud.svg;" vertex="1" parent="1">
          <mxGeometry x="185" y="299.25" width="50" height="31.5" as="geometry" />
        </mxCell>
        <mxCell id="7oyN3cYrIqbN6IqhUOc_-4" value="" style="image;aspect=fixed;perimeter=ellipsePerimeter;html=1;align=center;shadow=0;dashed=0;spacingTop=3;image=img/lib/active_directory/cell_phone.svg;" vertex="1" parent="1">
          <mxGeometry x="330" y="290" width="21" height="50" as="geometry" />
        </mxCell>
        <mxCell id="7oyN3cYrIqbN6IqhUOc_-9" value="pc-client" style="text;html=1;align=center;verticalAlign=middle;resizable=0;points=[];autosize=1;strokeColor=none;fillColor=none;fontSize=16;" vertex="1" parent="1">
          <mxGeometry x="22.5" y="330.75" width="80" height="30" as="geometry" />
        </mxCell>
        <mxCell id="7oyN3cYrIqbN6IqhUOc_-10" value="mobile-client" style="text;html=1;align=center;verticalAlign=middle;resizable=0;points=[];autosize=1;strokeColor=none;fillColor=none;fontSize=16;" vertex="1" parent="1">
          <mxGeometry x="285.5" y="340" width="110" height="30" as="geometry" />
        </mxCell>
        <mxCell id="7oyN3cYrIqbN6IqhUOc_-11" value="pc-administrator" style="text;html=1;align=center;verticalAlign=middle;resizable=0;points=[];autosize=1;strokeColor=none;fillColor=none;fontSize=16;" vertex="1" parent="1">
          <mxGeometry x="140" y="460" width="140" height="30" as="geometry" />
        </mxCell>
        <mxCell id="7oyN3cYrIqbN6IqhUOc_-12" value="cloude storage&lt;div&gt;&amp;nbsp;(Яндекс Диск)&lt;/div&gt;" style="text;html=1;align=center;verticalAlign=middle;resizable=0;points=[];autosize=1;strokeColor=none;fillColor=none;fontSize=16;" vertex="1" parent="1">
          <mxGeometry x="145" y="249.25" width="130" height="50" as="geometry" />
        </mxCell>
      </root>
    </mxGraphModel>
  </diagram>
</mxfile>
